<svg id="Group_39" data-name="Group 39" xmlns="http://www.w3.org/2000/svg" xmlns:xlink="http://www.w3.org/1999/xlink" width="178.946" height="98.056" viewBox="0 0 178.946 98.056">
  <defs>
    <clipPath id="clip-path">
      <rect id="Rectangle_23" data-name="Rectangle 23" width="178.946" height="98.056" fill="none"/>
    </clipPath>
  </defs>
  <path id="Path_5" data-name="Path 5" d="M44.721,51.305V11.8L26.934,42.231h-2.9L6.243,11.8v39.5H1.5V2.267H5.963l19.518,33.5L45,2.267h4.463V51.305Z" transform="translate(-0.843 -1.274)" fill="#fff"/>
  <path id="Path_6" data-name="Path 6" d="M44.535,2.081h3.428V49.8H44.535V8.533L25.714,40.73h-2.15L4.743,8.533V49.8H1.314V2.081H4.743l19.9,34.146ZM47.963.766H43.779l-.38.653-18.761,32.2L5.878,1.419,5.5.766H0V51.119H6.057V13.386L22.428,41.393l.381.651h3.659l.38-.651L43.221,13.386V51.119h6.057V.766Z" transform="translate(0 -0.43)" fill="#fff"/>
  <g id="Group_38" data-name="Group 38">
    <g id="Group_37" data-name="Group 37" clip-path="url(#clip-path)">
      <path id="Path_7" data-name="Path 7" d="M167.271,51.305,155.71,33.291H141.267V51.305h-4.743V2.267H157.01a13.021,13.021,0,0,1,5.872,1.346,14.967,14.967,0,0,1,4.6,3.55,16.94,16.94,0,0,1,3.007,4.964,15.26,15.26,0,0,1,1.088,5.584,16.866,16.866,0,0,1-.84,5.281,15.673,15.673,0,0,1-2.386,4.594,13.6,13.6,0,0,1-3.743,3.39,13.07,13.07,0,0,1-3.841,1.576L172.8,51.305Zm-9.925-22.487a8.078,8.078,0,0,0,3.857-.93,9.965,9.965,0,0,0,3.028-2.492,11.183,11.183,0,0,0,1.935-3.556,13.029,13.029,0,0,0,.672-4.128,11.239,11.239,0,0,0-.794-4.16,11.8,11.8,0,0,0-2.164-3.534,10.842,10.842,0,0,0-3.169-2.44,8.382,8.382,0,0,0-3.836-.9H141.267V28.818Z" transform="translate(-76.717 -1.274)" fill="#fff"/>
      <path id="Path_8" data-name="Path 8" d="M156.167,2.081a12.314,12.314,0,0,1,5.579,1.277,14.255,14.255,0,0,1,4.4,3.395,16.216,16.216,0,0,1,2.89,4.772,14.537,14.537,0,0,1,1.042,5.344,16.138,16.138,0,0,1-.807,5.075,14.943,14.943,0,0,1-2.285,4.4,12.883,12.883,0,0,1-3.563,3.226,12.477,12.477,0,0,1-4.57,1.68l11.9,18.552h-3.966L155.227,31.791h-15.46V49.805h-3.428V2.081Zm-16.4,26.551H156.5a8.688,8.688,0,0,0,4.167-1.008,10.573,10.573,0,0,0,3.226-2.655,11.789,11.789,0,0,0,2.05-3.764,13.624,13.624,0,0,0,.706-4.336,11.848,11.848,0,0,0-.84-4.4,12.4,12.4,0,0,0-2.286-3.731,11.449,11.449,0,0,0-3.361-2.588,8.991,8.991,0,0,0-4.134-.975H139.767V28.632M156.167.767H135.024V51.119h6.057V33.105h13.427l11.173,17.41.388.6h7.088l-1.3-2.023L160.967,32.109a13.631,13.631,0,0,0,3.147-1.416,14.247,14.247,0,0,0,3.923-3.552,16.33,16.33,0,0,0,2.486-4.787,17.52,17.52,0,0,0,.873-5.486,15.909,15.909,0,0,0-1.133-5.823,17.609,17.609,0,0,0-3.123-5.157,15.631,15.631,0,0,0-4.8-3.706A13.673,13.673,0,0,0,156.167.767m-15.087,5.72h14.952a7.733,7.733,0,0,1,3.538.832,10.2,10.2,0,0,1,2.978,2.294,11.149,11.149,0,0,1,2.043,3.339,10.588,10.588,0,0,1,.747,3.917,12.371,12.371,0,0,1-.638,3.92,10.531,10.531,0,0,1-1.822,3.349,9.307,9.307,0,0,1-2.829,2.327,7.419,7.419,0,0,1-3.547.852H141.081Z" transform="translate(-75.874 -0.431)" fill="#fff"/>
      <path id="Path_9" data-name="Path 9" d="M251.626,51.21a20.388,20.388,0,0,1-9.269-2.154,23.592,23.592,0,0,1-7.293-5.67A27,27,0,0,1,230.31,35.4a25.288,25.288,0,0,1-1.724-9.108,26.291,26.291,0,0,1,1.689-9.306,25.982,25.982,0,0,1,4.69-7.929,22.746,22.746,0,0,1,7.163-5.5,20.436,20.436,0,0,1,9.1-2.051,25.4,25.4,0,0,1,6.59.8,20.262,20.262,0,0,1,5.28,2.225,17.128,17.128,0,0,1,4.054,3.425,21.266,21.266,0,0,1,2.879,4.336l.273.546-3.948,2.351-.32-.622a14.781,14.781,0,0,0-6.143-6.543,18.465,18.465,0,0,0-8.733-2.041A15.541,15.541,0,0,0,243.8,7.711a18.322,18.322,0,0,0-5.647,4.608,20.767,20.767,0,0,0-3.583,6.516,23.362,23.362,0,0,0-1.242,7.519,21.419,21.419,0,0,0,5.378,14.282,19.179,19.179,0,0,0,5.883,4.453,16.283,16.283,0,0,0,7.239,1.647,17.384,17.384,0,0,0,8-1.944,24.013,24.013,0,0,0,7.2-6.04V30.44H256.212V26.37h15.094v24.5h-4.271V44.417c-4.47,4.509-9.646,6.793-15.408,6.793" transform="translate(-128.449 -0.842)" fill="#fff"/>
      <path id="Path_10" data-name="Path 10" d="M250.38,1.314a24.621,24.621,0,0,1,6.419.773,19.5,19.5,0,0,1,5.108,2.151,16.372,16.372,0,0,1,3.9,3.293,20.5,20.5,0,0,1,2.79,4.2l-2.823,1.68a15.356,15.356,0,0,0-6.42-6.823,19.024,19.024,0,0,0-9.04-2.118,16.126,16.126,0,0,0-7.663,1.815,18.911,18.911,0,0,0-5.848,4.773,21.342,21.342,0,0,0-3.7,6.721,23.9,23.9,0,0,0-1.277,7.73,22.073,22.073,0,0,0,5.546,14.72,19.741,19.741,0,0,0,6.083,4.6,16.861,16.861,0,0,0,7.528,1.714,17.954,17.954,0,0,0,8.3-2.016,24.738,24.738,0,0,0,7.562-6.386V28.94H256.026V26.184h13.779v23.19h-2.957V41.913q-6.924,7.8-16.065,7.8a19.647,19.647,0,0,1-8.973-2.084,22.822,22.822,0,0,1-7.091-5.512,26.212,26.212,0,0,1-4.638-7.8,24.523,24.523,0,0,1-1.68-8.873,25.508,25.508,0,0,1,1.647-9.074,25.2,25.2,0,0,1,4.571-7.73A21.991,21.991,0,0,1,241.574,3.3a19.691,19.691,0,0,1,8.806-1.983m0-1.314a21.084,21.084,0,0,0-9.385,2.118,23.41,23.41,0,0,0-7.369,5.66,26.647,26.647,0,0,0-4.809,8.129,26.931,26.931,0,0,0-1.731,9.538,25.951,25.951,0,0,0,1.768,9.345,27.659,27.659,0,0,0,4.869,8.184,24.234,24.234,0,0,0,7.5,5.827,21.033,21.033,0,0,0,9.564,2.225,21.462,21.462,0,0,0,14.751-5.912v5.576h5.585V24.87H254.712v5.384h10.822v7.415a23.142,23.142,0,0,1-6.848,5.7,16.726,16.726,0,0,1-7.7,1.871,15.634,15.634,0,0,1-6.95-1.58,18.539,18.539,0,0,1-5.683-4.3,20.763,20.763,0,0,1-5.21-13.844A22.7,22.7,0,0,1,234.35,18.2a20.131,20.131,0,0,1,3.47-6.312,17.681,17.681,0,0,1,5.445-4.443,14.9,14.9,0,0,1,7.048-1.662,17.812,17.812,0,0,1,8.425,1.965,14.142,14.142,0,0,1,5.866,6.263l.64,1.243,1.2-.715,2.822-1.68,1.05-.625-.547-1.093a21.918,21.918,0,0,0-2.967-4.47,17.8,17.8,0,0,0-4.209-3.558,20.942,20.942,0,0,0-5.451-2.3A26.056,26.056,0,0,0,250.38,0" transform="translate(-127.606 0)" fill="#fff"/>
      <path id="Path_11" data-name="Path 11" d="M1.52,158.512V109.473H18.041a25.153,25.153,0,0,1,10.179,1.938,20.712,20.712,0,0,1,7.321,5.277,22.15,22.15,0,0,1,4.365,7.791,30.467,30.467,0,0,1,1.443,9.446,29.807,29.807,0,0,1-1.618,10.069,21.987,21.987,0,0,1-4.679,7.758,21,21,0,0,1-7.388,5,25.376,25.376,0,0,1-9.625,1.763Zm16.521-4.406a19.918,19.918,0,0,0,8.037-1.524,16,16,0,0,0,5.781-4.229,18.692,18.692,0,0,0,3.538-6.4,25.8,25.8,0,0,0,1.211-8.03,25.386,25.386,0,0,0-1.243-8.092,18.134,18.134,0,0,0-3.6-6.326,16.449,16.449,0,0,0-5.787-4.136,19.88,19.88,0,0,0-7.939-1.492H6.263v40.226Z" transform="translate(-0.854 -61.516)" fill="#fff"/>
      <path id="Path_12" data-name="Path 12" d="M17.2,109.286a24.392,24.392,0,0,1,9.914,1.882,19.971,19.971,0,0,1,7.091,5.108,21.4,21.4,0,0,1,4.235,7.562,29.679,29.679,0,0,1,1.411,9.242,29.022,29.022,0,0,1-1.58,9.847,21.234,21.234,0,0,1-4.537,7.529,20.256,20.256,0,0,1-7.159,4.84,24.62,24.62,0,0,1-9.377,1.714H1.334V109.286ZM4.763,153.919H17.2a20.466,20.466,0,0,0,8.3-1.58,16.569,16.569,0,0,0,6.016-4.4,19.256,19.256,0,0,0,3.664-6.621,26.335,26.335,0,0,0,1.244-8.234,25.922,25.922,0,0,0-1.277-8.3,18.694,18.694,0,0,0-3.731-6.554,17.012,17.012,0,0,0-6.016-4.3,20.44,20.44,0,0,0-8.2-1.546H4.763v41.54M17.2,107.972H.02v50.353H17.2a26.028,26.028,0,0,0,9.873-1.811,21.643,21.643,0,0,0,7.617-5.153,22.635,22.635,0,0,0,4.82-7.988,30.462,30.462,0,0,0,1.657-10.291,31.124,31.124,0,0,0-1.476-9.649,22.8,22.8,0,0,0-4.5-8.02,21.365,21.365,0,0,0-7.55-5.446A25.808,25.808,0,0,0,17.2,107.972M6.077,113.693H17.2a19.237,19.237,0,0,1,7.677,1.437,15.794,15.794,0,0,1,5.558,3.97,17.484,17.484,0,0,1,3.466,6.1,24.742,24.742,0,0,1,1.209,7.882,25.132,25.132,0,0,1-1.178,7.825,18.047,18.047,0,0,1-3.412,6.174,15.347,15.347,0,0,1-5.547,4.055A19.261,19.261,0,0,1,17.2,152.6H6.077Z" transform="translate(-0.011 -60.673)" fill="#fff"/>
      <path id="Path_13" data-name="Path 13" d="M121.312,158.484a27.6,27.6,0,0,1-19.333-7.3l-.41-.378,2.575-3.911.57.6a21.333,21.333,0,0,0,7.175,4.857,24.407,24.407,0,0,0,9.558,1.8c4.02,0,7.19-.734,9.423-2.18a7.011,7.011,0,0,0,3.229-6.372,7.342,7.342,0,0,0-.855-3.674,7.862,7.862,0,0,0-2.578-2.632,18.028,18.028,0,0,0-4.506-2.006c-1.861-.576-4.058-1.136-6.53-1.666-2.559-.539-4.851-1.121-6.812-1.729a18.556,18.556,0,0,1-5.087-2.373,9.858,9.858,0,0,1-3.2-3.565,11.315,11.315,0,0,1-1.082-5.209,13.312,13.312,0,0,1,1.313-6.007,12.781,12.781,0,0,1,3.647-4.427,16.192,16.192,0,0,1,5.533-2.7,25.962,25.962,0,0,1,7.035-.9,23.947,23.947,0,0,1,8.5,1.421,20.264,20.264,0,0,1,6.808,4.34l.394.377-2.513,3.865-.573-.639c-2.948-3.289-7.193-4.957-12.618-4.957-4.481,0-7.766.842-9.763,2.5a8.132,8.132,0,0,0-2.956,6.653,7.407,7.407,0,0,0,.729,3.488,6.316,6.316,0,0,0,2.289,2.34,16.127,16.127,0,0,0,4.165,1.74c1.717.485,3.83,1,6.28,1.536,2.548.536,4.909,1.141,7.012,1.8a20.906,20.906,0,0,1,5.483,2.537,11.083,11.083,0,0,1,3.569,3.859,11.649,11.649,0,0,1,1.257,5.625,12.335,12.335,0,0,1-1.32,5.819,11.784,11.784,0,0,1-3.7,4.163,17.131,17.131,0,0,1-5.591,2.484,28.655,28.655,0,0,1-7.121.828" transform="translate(-57.074 -61.085)" fill="#fff"/>
      <path id="Path_14" data-name="Path 14" d="M119.878,108.52a23.188,23.188,0,0,1,8.268,1.378,19.51,19.51,0,0,1,6.587,4.2l-1.748,2.689q-4.638-5.175-13.107-5.176-6.992,0-10.183,2.655a8.828,8.828,0,0,0-3.193,7.159,8.014,8.014,0,0,0,.806,3.8,6.936,6.936,0,0,0,2.521,2.588,16.684,16.684,0,0,0,4.336,1.815q2.621.741,6.318,1.546,3.832.806,6.957,1.781a20.172,20.172,0,0,1,5.31,2.454,10.389,10.389,0,0,1,3.361,3.63,10.96,10.96,0,0,1,1.176,5.31,11.634,11.634,0,0,1-1.244,5.512,11.081,11.081,0,0,1-3.5,3.933,16.413,16.413,0,0,1-5.377,2.386,27.857,27.857,0,0,1-6.957.806,26.844,26.844,0,0,1-18.888-7.125l1.815-2.756a21.878,21.878,0,0,0,7.394,5.008,24.951,24.951,0,0,0,9.814,1.849q6.251,0,9.78-2.286a7.686,7.686,0,0,0,3.529-6.923,7.951,7.951,0,0,0-.941-4,8.472,8.472,0,0,0-2.79-2.856,18.574,18.574,0,0,0-4.672-2.084q-2.823-.873-6.587-1.68-3.831-.807-6.755-1.714a17.8,17.8,0,0,1-4.907-2.285,9.16,9.16,0,0,1-2.991-3.327,10.618,10.618,0,0,1-1.008-4.907,12.6,12.6,0,0,1,1.244-5.713,12.074,12.074,0,0,1,3.462-4.2,15.463,15.463,0,0,1,5.31-2.588,25.193,25.193,0,0,1,6.856-.874m0-1.314a26.623,26.623,0,0,0-7.213.923,16.841,16.841,0,0,0-5.757,2.812,13.435,13.435,0,0,0-3.834,4.654,13.958,13.958,0,0,0-1.382,6.3,11.952,11.952,0,0,0,1.155,5.511,10.5,10.5,0,0,0,3.409,3.8,19.17,19.17,0,0,0,5.267,2.461c1.981.615,4.293,1.2,6.874,1.745,2.449.525,4.627,1.08,6.47,1.65a17.375,17.375,0,0,1,4.34,1.928,7.207,7.207,0,0,1,2.369,2.409,6.7,6.7,0,0,1,.768,3.347,6.4,6.4,0,0,1-2.929,5.82c-2.125,1.377-5.175,2.075-9.066,2.075a23.754,23.754,0,0,1-9.3-1.745,20.676,20.676,0,0,1-6.957-4.706L102.951,145l-.907,1.377-1.815,2.756-.614.933.821.757a28.238,28.238,0,0,0,19.779,7.473,29.293,29.293,0,0,0,7.285-.848,17.8,17.8,0,0,0,5.8-2.583,12.427,12.427,0,0,0,3.9-4.394,12.976,12.976,0,0,0,1.4-6.126,12.288,12.288,0,0,0-1.337-5.94,11.734,11.734,0,0,0-3.777-4.088,21.543,21.543,0,0,0-5.656-2.62c-2.124-.662-4.505-1.271-7.078-1.813-2.428-.53-4.527-1.043-6.231-1.524a15.48,15.48,0,0,1-3.994-1.664,5.676,5.676,0,0,1-2.06-2.093,6.777,6.777,0,0,1-.652-3.179,7.51,7.51,0,0,1,2.719-6.148c1.876-1.56,5.019-2.352,9.343-2.352,5.3,0,9.271,1.55,12.128,4.739l1.146,1.278.935-1.439,1.747-2.689.594-.914-.789-.753a20.916,20.916,0,0,0-7.028-4.479,24.6,24.6,0,0,0-8.734-1.464" transform="translate(-55.977 -60.242)" fill="#fff"/>
      <path id="Path_15" data-name="Path 15" d="M219.273,158.417A20.388,20.388,0,0,1,210,156.263a23.592,23.592,0,0,1-7.293-5.67,27,27,0,0,1-4.754-7.991,25.288,25.288,0,0,1-1.724-9.108,26.285,26.285,0,0,1,1.689-9.306,25.975,25.975,0,0,1,4.69-7.929,22.733,22.733,0,0,1,7.163-5.5,20.43,20.43,0,0,1,9.1-2.051,25.4,25.4,0,0,1,6.59.8,20.268,20.268,0,0,1,5.28,2.225,17.136,17.136,0,0,1,4.054,3.425,21.266,21.266,0,0,1,2.879,4.336l.273.546L234,122.385l-.32-.622a14.775,14.775,0,0,0-6.142-6.543,18.461,18.461,0,0,0-8.733-2.041,15.544,15.544,0,0,0-7.355,1.739,18.323,18.323,0,0,0-5.647,4.608,20.786,20.786,0,0,0-3.583,6.516,23.366,23.366,0,0,0-1.242,7.519,21.419,21.419,0,0,0,5.378,14.282,19.186,19.186,0,0,0,5.883,4.453,16.29,16.29,0,0,0,7.239,1.647,17.384,17.384,0,0,0,8-1.944,24,24,0,0,0,7.2-6.04v-8.313H223.859v-4.07h15.094v24.5h-4.272v-6.457c-4.47,4.51-9.646,6.793-15.408,6.793" transform="translate(-110.269 -61.085)" fill="#fff"/>
      <path id="Path_16" data-name="Path 16" d="M218.027,108.52a24.621,24.621,0,0,1,6.419.773,19.489,19.489,0,0,1,5.108,2.151,16.37,16.37,0,0,1,3.9,3.293,20.532,20.532,0,0,1,2.79,4.2l-2.823,1.68A15.351,15.351,0,0,0,227,113.8a19.02,19.02,0,0,0-9.04-2.118,16.126,16.126,0,0,0-7.663,1.815,18.91,18.91,0,0,0-5.848,4.772,21.344,21.344,0,0,0-3.7,6.722,23.9,23.9,0,0,0-1.277,7.73,22.075,22.075,0,0,0,5.546,14.721,19.756,19.756,0,0,0,6.083,4.6,16.867,16.867,0,0,0,7.528,1.714,17.955,17.955,0,0,0,8.3-2.016,24.729,24.729,0,0,0,7.562-6.386v-9.209H223.673V133.39h13.78v23.19h-2.958v-7.461q-6.924,7.8-16.065,7.8a19.647,19.647,0,0,1-8.973-2.084,22.822,22.822,0,0,1-7.091-5.512,26.217,26.217,0,0,1-4.638-7.8,24.527,24.527,0,0,1-1.68-8.873,25.508,25.508,0,0,1,1.647-9.074,25.2,25.2,0,0,1,4.571-7.73,21.984,21.984,0,0,1,6.957-5.344,19.691,19.691,0,0,1,8.806-1.983m0-1.314a21.078,21.078,0,0,0-9.385,2.118,23.4,23.4,0,0,0-7.369,5.66,26.638,26.638,0,0,0-4.809,8.129,26.927,26.927,0,0,0-1.731,9.538A25.947,25.947,0,0,0,196.5,142a27.666,27.666,0,0,0,4.869,8.184,24.241,24.241,0,0,0,7.5,5.827,21.039,21.039,0,0,0,9.564,2.225,21.464,21.464,0,0,0,14.751-5.912v5.576h5.586V132.076H222.359v5.384h10.822v7.415a23.131,23.131,0,0,1-6.847,5.7,16.732,16.732,0,0,1-7.7,1.871,15.635,15.635,0,0,1-6.95-1.58,18.54,18.54,0,0,1-5.683-4.3,20.763,20.763,0,0,1-5.21-13.844A22.7,22.7,0,0,1,202,125.41a20.13,20.13,0,0,1,3.47-6.312,17.681,17.681,0,0,1,5.445-4.442,14.9,14.9,0,0,1,7.048-1.662,17.812,17.812,0,0,1,8.425,1.965,14.135,14.135,0,0,1,5.865,6.262l.64,1.243,1.2-.715,2.823-1.68,1.05-.625-.547-1.093a21.918,21.918,0,0,0-2.968-4.47,17.781,17.781,0,0,0-4.209-3.558,20.919,20.919,0,0,0-5.451-2.3,26.05,26.05,0,0,0-6.762-.819" transform="translate(-109.426 -60.242)" fill="#fff"/>
      <path id="Path_17" data-name="Path 17" d="M350.471,158.511,318.508,118.46v40.051h-4.742V109.473h3.6l32.5,40.788V109.473H354.6v49.038Z" transform="translate(-176.314 -61.516)" fill="#fff"/>
      <path id="Path_18" data-name="Path 18" d="M353.1,109.287v47.724h-3.159L317.008,115.74v41.271H313.58V109.287H316.2L349.675,151.3V109.287Zm1.314-1.314h-6.056V147.54l-31.132-39.072-.394-.5h-4.569v50.352h6.056V119.494l30.595,38.337.395.494h5.106V107.973Z" transform="translate(-175.471 -60.673)" fill="#fff"/>
      <rect id="Rectangle_21" data-name="Rectangle 21" width="11.039" height="11.039" transform="translate(154.992 19.812)" fill="#fff"/>
      <path id="Rectangle_22" data-name="Rectangle 22" d="M-.5-.5H11.539V11.539H-.5ZM10.539.5H.5V10.539H10.539Z" transform="translate(154.992 19.812)" fill="#fff"/>
      <path id="Path_20" data-name="Path 20" d="M359.15,27.883l-3.378,4.035h6.757l-3.378-4.035m0-1.558,5.52,6.593H353.63Z" transform="translate(-198.715 -14.793)" fill="#fff"/>
      <path id="Path_21" data-name="Path 21" d="M382.681,45.362V56.4l6.593-5.52Z" transform="translate(-215.039 -25.49)" fill="#fff"/>
      <path id="Path_22" data-name="Path 22" d="M382.681,45.362V56.4l6.593-5.52Z" transform="translate(-215.039 -25.49)" fill="none"/>
      <path id="Path_23" data-name="Path 23" d="M341.323,56.205V45.166l-6.593,5.52Z" transform="translate(-188.095 -25.38)" fill="#fff"/>
      <path id="Path_24" data-name="Path 24" d="M341.323,56.205V45.166l-6.593,5.52Z" transform="translate(-188.095 -25.38)" fill="none"/>
      <path id="Path_26" data-name="Path 26" d="M359.046,79.31l3.378-4.035h-6.757l3.378,4.035m0,1.558-5.52-6.593h11.039Z" transform="translate(-198.657 -41.737)" fill="#fff"/>
    </g>
  </g>
</svg>
